<svg width="252" height="252" viewBox="0 0 252 252" fill="none" xmlns="http://www.w3.org/2000/svg">
<circle cx="126.175" cy="122.178" r="99" stroke="white" stroke-width="2"/>
<circle cx="126.175" cy="122.178" r="74" stroke="white" stroke-width="2"/>
<path fill-rule="evenodd" clip-rule="evenodd" d="M105.281 145.053C101.443 141.083 98.8575 136.071 97.8485 130.642C96.8395 125.212 97.4511 119.606 99.6073 114.522C101.763 109.438 105.368 105.101 109.973 102.052C114.578 99.0037 119.978 97.3779 125.5 97.3779C131.022 97.3779 136.423 99.0037 141.027 102.052C145.632 105.101 149.237 109.438 151.393 114.522C153.549 119.606 154.161 125.212 153.152 130.642C152.143 136.071 149.557 141.083 145.719 145.053C145.631 145.141 145.512 145.19 145.388 145.19C145.263 145.19 145.144 145.141 145.056 145.053L132.463 132.46C132.373 132.373 132.253 132.323 132.128 132.322C132.003 132.321 131.882 132.368 131.791 132.453C130.067 134.013 127.825 134.876 125.5 134.875C123.175 134.876 120.933 134.013 119.209 132.453C119.118 132.369 118.998 132.323 118.874 132.324C118.749 132.325 118.63 132.373 118.541 132.46L105.947 145.053C105.859 145.141 105.74 145.19 105.616 145.19C105.491 145.19 105.369 145.141 105.281 145.053ZM142.738 118.803C143.432 118.369 143.928 117.679 144.119 116.883C144.31 116.086 144.18 115.247 143.758 114.545C143.336 113.843 142.656 113.334 141.863 113.129C141.07 112.924 140.228 113.038 139.519 113.447L123.894 122.822C123.199 123.257 122.704 123.946 122.513 124.743C122.322 125.539 122.451 126.379 122.873 127.081C123.295 127.783 123.975 128.291 124.768 128.496C125.561 128.702 126.403 128.587 127.113 128.178L142.738 118.803Z" fill="white"/>
<path d="M75.1132 56.6076L70.2322 49.373L72.6767 47.7237C73.2419 47.3424 73.771 47.1259 74.264 47.0743C74.7553 47.0204 75.201 47.1019 75.6009 47.3187C76.0008 47.5355 76.3445 47.8571 76.6321 48.2833C76.9197 48.7096 77.0876 49.1464 77.1357 49.5937C77.1839 50.0409 77.0914 50.4803 76.8582 50.9118C76.6234 51.341 76.2257 51.7446 75.6652 52.1228L73.687 53.4575L73.1531 52.6662L75.1031 51.3506C75.4893 51.09 75.7621 50.8237 75.9213 50.5518C76.0829 50.2783 76.1468 50.0022 76.1129 49.7234C76.0798 49.4407 75.9656 49.1545 75.7701 48.8649C75.5747 48.5752 75.3497 48.3586 75.0952 48.215C74.8407 48.0714 74.5548 48.021 74.2375 48.0637C73.9186 48.1041 73.5637 48.2562 73.1728 48.5199L71.6326 49.5591L75.9893 56.0166L75.1132 56.6076ZM76.3259 51.0602L80.299 53.1089L79.2816 53.7953L75.3368 51.7275L76.3259 51.0602Z" fill="white"/>
<path d="M84.7103 50.7189C84.1549 51.0176 83.6098 51.1527 83.0751 51.1242C82.5416 51.0918 82.0469 50.9128 81.591 50.587C81.1363 50.2574 80.7502 49.7973 80.4326 49.2069C80.115 48.6164 79.9427 48.0381 79.9156 47.4721C79.8897 46.9021 80.0027 46.3865 80.2546 45.9252C80.5076 45.4601 80.8943 45.0876 81.4147 44.8077C81.715 44.6462 82.0384 44.5367 82.3849 44.4794C82.7315 44.422 83.0854 44.4413 83.4467 44.5373C83.8067 44.6308 84.1569 44.8231 84.4973 45.1141C84.8377 45.4052 85.1526 45.8197 85.442 46.3576L85.6438 46.7329L81.2003 49.1229L80.7886 48.3573L84.3313 46.4518C84.1564 46.1265 83.9352 45.8713 83.6679 45.6861C83.403 45.4995 83.112 45.3963 82.7949 45.3766C82.4804 45.3555 82.1629 45.431 81.8427 45.6033C81.4899 45.793 81.2318 46.0448 81.0683 46.3585C80.9059 46.6684 80.8306 46.9992 80.8424 47.351C80.8542 47.7027 80.9455 48.0374 81.1164 48.3552L81.391 48.8656C81.6251 49.3009 81.8987 49.6296 82.2116 49.8516C82.5257 50.0697 82.8603 50.1849 83.2153 50.1972C83.5689 50.207 83.9246 50.1157 84.2824 49.9232C84.5151 49.7981 84.7078 49.6525 84.8604 49.4865C85.0142 49.3167 85.1243 49.1285 85.1906 48.9219C85.2555 48.7128 85.2717 48.4879 85.2391 48.2474L86.2239 48.0273C86.29 48.366 86.2759 48.7026 86.1816 49.0372C86.086 49.3693 85.9148 49.6807 85.668 49.9715C85.4199 50.2598 85.1006 50.5089 84.7103 50.7189Z" fill="white"/>
<path d="M87.5055 39.445L91.0099 47.4378L90.0888 47.8416L86.5844 39.8488L87.5055 39.445Z" fill="white"/>
<path d="M94.3254 46.0286L92.0193 39.9028L92.9605 39.5485L95.2666 45.6743L94.3254 46.0286ZM92.1136 38.7017C91.9301 38.7708 91.7484 38.7679 91.5684 38.6929C91.3911 38.617 91.2694 38.4913 91.2034 38.3158C91.1373 38.1404 91.1459 37.9656 91.2291 37.7916C91.315 37.6166 91.4497 37.4946 91.6332 37.4255C91.8166 37.3565 91.997 37.3599 92.1743 37.4358C92.3543 37.5107 92.4773 37.6359 92.5434 37.8114C92.6094 37.9869 92.5995 38.1621 92.5136 38.3371C92.4304 38.5111 92.297 38.6327 92.1136 38.7017Z" fill="white"/>
<path d="M100.782 43.9292C100.384 44.0457 100.001 44.0764 99.6325 44.0213C99.2633 43.9636 98.9414 43.8195 98.6668 43.589C98.3914 43.3558 98.1939 43.0347 98.0742 42.6257C97.9689 42.2658 97.9545 41.9533 98.0308 41.6883C98.1064 41.4205 98.244 41.1878 98.4438 40.9903C98.6435 40.7927 98.8773 40.6207 99.1453 40.4742C99.4151 40.3242 99.6904 40.1875 99.971 40.064C100.338 39.9032 100.637 39.7758 100.867 39.6819C101.099 39.5844 101.26 39.4884 101.351 39.3938C101.445 39.2984 101.469 39.1729 101.423 39.0175L101.413 38.9848C101.295 38.5813 101.093 38.3 100.807 38.141C100.523 37.9813 100.159 37.9664 99.715 38.0964C99.2542 38.2312 98.9225 38.4378 98.7197 38.7162C98.517 38.9945 98.396 39.2638 98.3566 39.5239L97.3448 39.4648C97.3967 39.0352 97.5279 38.6742 97.7383 38.3817C97.9507 38.0857 98.2067 37.848 98.5065 37.6686C98.8081 37.4856 99.1171 37.3478 99.4334 37.2553C99.6352 37.1963 99.8741 37.153 100.15 37.1255C100.428 37.0945 100.712 37.1167 101 37.1921C101.291 37.2668 101.562 37.4288 101.813 37.6781C102.063 37.9274 102.261 38.3016 102.407 38.8006L103.618 42.9396L102.653 43.222L102.404 42.3713L102.355 42.3856C102.33 42.5411 102.263 42.7189 102.156 42.919C102.049 43.1191 101.884 43.3107 101.663 43.494C101.441 43.6772 101.147 43.8223 100.782 43.9292ZM100.676 43.0191C101.057 42.9074 101.357 42.7383 101.575 42.5117C101.796 42.2844 101.938 42.0326 102.002 41.7562C102.069 41.4791 102.064 41.2097 101.988 40.948L101.729 40.0645C101.703 40.1256 101.626 40.1969 101.499 40.2785C101.374 40.3565 101.226 40.4369 101.054 40.5195C100.885 40.5986 100.719 40.6738 100.557 40.7451C100.396 40.8129 100.266 40.8687 100.166 40.9127C99.9247 41.0188 99.7058 41.1405 99.5092 41.278C99.3145 41.4119 99.1715 41.5706 99.0802 41.7542C98.9908 41.9343 98.982 42.147 99.0538 42.3924C99.1519 42.7278 99.3502 42.9451 99.6485 43.0443C99.9488 43.1399 100.291 43.1315 100.676 43.0191Z" fill="white"/>
<path d="M106.282 42.2217L104.623 33.6536L105.611 33.4624L106.223 36.6253L106.307 36.6091C106.358 36.4835 106.43 36.3218 106.525 36.124C106.622 35.9229 106.779 35.7305 106.995 35.5469C107.214 35.3599 107.532 35.2259 107.95 35.1449C108.491 35.0401 108.995 35.083 109.46 35.2736C109.925 35.4642 110.321 35.7854 110.649 36.237C110.977 36.6886 111.206 37.2519 111.336 37.9269C111.468 38.6074 111.467 39.2197 111.332 39.7638C111.197 40.3051 110.95 40.7521 110.593 41.1048C110.236 41.4548 109.789 41.6816 109.254 41.7853C108.841 41.8652 108.497 41.8609 108.222 41.7723C107.947 41.6809 107.726 41.5603 107.558 41.4105C107.389 41.2579 107.257 41.1301 107.162 41.027L107.045 41.0497L107.236 42.037L106.282 42.2217ZM106.631 38.8207C106.725 39.3061 106.879 39.7204 107.093 40.0638C107.306 40.4044 107.57 40.6529 107.884 40.8091C108.197 40.9626 108.552 41.001 108.948 40.9243C109.361 40.8443 109.684 40.6689 109.918 40.3978C110.154 40.1235 110.306 39.7873 110.374 39.3894C110.444 38.9881 110.434 38.5588 110.346 38.1013C110.258 37.6495 110.11 37.2558 109.9 36.9202C109.693 36.5813 109.429 36.3329 109.109 36.1749C108.791 36.0136 108.423 35.9735 108.005 36.0545C107.603 36.1323 107.286 36.2994 107.052 36.556C106.817 36.8097 106.665 37.1314 106.596 37.521C106.526 37.9078 106.538 38.341 106.631 38.8207Z" fill="white"/>
<path d="M114.713 31.9535L115.702 40.6245L114.703 40.7385L113.714 32.0675L114.713 31.9535Z" fill="white"/>
<path d="M122.103 40.2356C121.473 40.2586 120.924 40.1394 120.457 39.8779C119.993 39.6134 119.628 39.2344 119.362 38.741C119.1 38.2445 118.956 37.6613 118.932 36.9913C118.907 36.3213 119.008 35.7263 119.233 35.2064C119.461 34.6835 119.79 34.2706 120.22 33.9678C120.652 33.6621 121.164 33.4984 121.754 33.4768C122.095 33.4643 122.433 33.5088 122.77 33.6103C123.106 33.7117 123.415 33.8852 123.697 34.1307C123.979 34.3734 124.208 34.7005 124.385 35.1119C124.562 35.5233 124.662 36.0342 124.684 36.6446L124.7 37.0705L119.658 37.2547L119.626 36.386L123.646 36.2391C123.633 35.87 123.547 35.5434 123.388 35.2592C123.233 34.9749 123.017 34.754 122.742 34.5963C122.469 34.4386 122.15 34.3663 121.787 34.3796C121.387 34.3942 121.044 34.5063 120.759 34.7157C120.476 34.9222 120.263 35.1858 120.118 35.5066C119.974 35.8275 119.908 36.1682 119.921 36.5287L119.942 37.1079C119.96 37.6019 120.061 38.0175 120.244 38.3548C120.429 38.6892 120.679 38.9402 120.992 39.1078C121.305 39.2726 121.664 39.3476 122.07 39.3328C122.334 39.3231 122.572 39.2775 122.782 39.1959C122.995 39.1114 123.177 38.991 123.327 38.8348C123.478 38.6758 123.591 38.4812 123.668 38.251L124.649 38.488C124.559 38.8211 124.398 39.117 124.166 39.3756C123.933 39.6314 123.642 39.8354 123.293 39.9875C122.943 40.1367 122.546 40.2194 122.103 40.2356Z" fill="white"/>
<path d="M134.683 40.6092C134.271 40.5625 133.906 40.4425 133.587 40.2491C133.269 40.053 133.028 39.7955 132.864 39.4767C132.701 39.1551 132.643 38.7826 132.691 38.3591C132.733 37.9865 132.841 37.6928 133.014 37.478C133.187 37.2603 133.404 37.0991 133.665 36.9942C133.925 36.8894 134.207 36.8213 134.511 36.79C134.818 36.7561 135.125 36.7366 135.431 36.7313C135.832 36.7253 136.157 36.7235 136.405 36.7259C136.657 36.7258 136.843 36.6997 136.963 36.6476C137.086 36.5958 137.157 36.4895 137.175 36.3286L137.179 36.2947C137.226 35.8769 137.149 35.5393 136.946 35.2819C136.747 35.0249 136.417 34.8703 135.957 34.8181C135.48 34.764 135.094 34.8261 134.799 35.0043C134.505 35.1824 134.289 35.3838 134.152 35.6085L133.242 35.1622C133.456 34.7862 133.717 34.5041 134.024 34.316C134.334 34.1253 134.662 34.0052 135.008 33.9558C135.357 33.9038 135.695 33.8964 136.023 33.9335C136.232 33.9572 136.469 34.0098 136.734 34.0913C137.002 34.1704 137.255 34.3005 137.492 34.4817C137.731 34.6633 137.918 34.9175 138.053 35.2444C138.187 35.5713 138.225 35.993 138.167 36.5096L137.681 40.7946L136.682 40.6814L136.782 39.8006L136.731 39.7949C136.647 39.9283 136.517 40.0666 136.341 40.2096C136.164 40.3525 135.939 40.4656 135.663 40.5488C135.388 40.6319 135.061 40.6521 134.683 40.6092ZM134.937 39.7288C135.332 39.7736 135.674 39.7337 135.963 39.6092C136.254 39.485 136.483 39.3079 136.649 39.078C136.818 38.8484 136.918 38.5981 136.949 38.3271L137.052 37.4125C137.004 37.4585 136.906 37.4946 136.757 37.5206C136.611 37.5441 136.444 37.5608 136.254 37.5708C136.067 37.5782 135.885 37.5833 135.708 37.586C135.533 37.5863 135.391 37.5874 135.283 37.5893C135.019 37.5938 134.77 37.6213 134.536 37.6719C134.304 37.72 134.111 37.8111 133.956 37.945C133.804 38.0764 133.713 38.2692 133.684 38.5232C133.645 38.8704 133.744 39.1475 133.98 39.3545C134.22 39.5589 134.539 39.6837 134.937 39.7288Z" fill="white"/>
<path d="M140.466 41.2345L141.673 34.8013L142.661 34.9868L141.454 41.42L140.466 41.2345ZM142.377 33.8235C142.184 33.7873 142.03 33.6905 141.915 33.5331C141.803 33.3762 141.764 33.2056 141.799 33.0213C141.834 32.837 141.932 32.6921 142.093 32.5865C142.257 32.4815 142.436 32.4471 142.628 32.4832C142.821 32.5194 142.974 32.6159 143.086 32.7728C143.201 32.9303 143.241 33.1011 143.206 33.2854C143.172 33.4697 143.072 33.6144 142.908 33.7194C142.747 33.8249 142.57 33.8596 142.377 33.8235Z" fill="white"/>
<path d="M145.159 42.1578L146.762 35.8116L147.704 36.0495L147.462 37.008L147.528 37.0247C147.723 36.74 147.997 36.538 148.349 36.419C148.701 36.2999 149.068 36.2884 149.448 36.3844C149.519 36.4025 149.608 36.4265 149.715 36.4564C149.822 36.4862 149.902 36.5109 149.956 36.5303L149.705 37.5219C149.674 37.5053 149.602 37.4738 149.488 37.4273C149.377 37.3788 149.257 37.3383 149.127 37.3056C148.819 37.2276 148.527 37.2228 148.252 37.2911C147.98 37.3572 147.746 37.4855 147.548 37.6759C147.354 37.8642 147.221 38.1016 147.148 38.3881L146.134 42.4041L145.159 42.1578Z" fill="white"/>
<path d="M153.142 44.5524C152.56 44.3571 152.105 44.0515 151.778 43.6357C151.45 43.2199 151.254 42.733 151.189 42.175C151.125 41.6169 151.197 41.0282 151.405 40.4088C151.616 39.7786 151.919 39.2614 152.312 38.8571C152.71 38.451 153.162 38.1821 153.671 38.0503C154.184 37.9167 154.72 37.9439 155.28 38.1321C155.716 38.2786 156.082 38.4914 156.378 38.7706C156.674 39.0497 156.885 39.3723 157.011 39.7382C157.137 40.1041 157.161 40.49 157.085 40.8959L156.132 40.5758C156.154 40.2686 156.076 39.9638 155.899 39.6616C155.726 39.3575 155.429 39.135 155.009 38.9939C154.637 38.8691 154.279 38.8566 153.933 38.9564C153.592 39.0545 153.284 39.2523 153.01 39.55C152.74 39.8458 152.526 40.2281 152.369 40.6967C152.208 41.176 152.143 41.6188 152.175 42.0249C152.209 42.432 152.331 42.7804 152.543 43.0701C152.757 43.3608 153.052 43.5694 153.429 43.696C153.677 43.7792 153.917 43.8117 154.148 43.7933C154.378 43.775 154.591 43.7085 154.785 43.594C154.98 43.4794 155.144 43.319 155.28 43.1127L156.233 43.4328C156.056 43.781 155.812 44.0661 155.501 44.2882C155.193 44.5085 154.836 44.6465 154.431 44.7022C154.029 44.7561 153.6 44.7062 153.142 44.5524Z" fill="white"/>
<path d="M157.92 46.1288L160.475 40.1028L161.369 40.4821L160.983 41.3923L161.046 41.4189C161.283 41.1673 161.584 41.0097 161.95 40.946C162.317 40.8823 162.68 40.9269 163.041 41.08C163.109 41.1088 163.194 41.1462 163.295 41.192C163.396 41.2379 163.471 41.2746 163.521 41.302L163.122 42.2435C163.094 42.2224 163.027 42.1801 162.921 42.1167C162.819 42.0518 162.707 41.9933 162.584 41.9412C162.291 41.817 162.003 41.7676 161.721 41.7929C161.442 41.8167 161.191 41.9076 160.966 42.0655C160.746 42.2219 160.578 42.4361 160.463 42.7081L158.846 46.5215L157.92 46.1288Z" fill="white"/>
<path d="M164.787 49.4099C164.419 49.2188 164.121 48.9761 163.893 48.6817C163.666 48.3847 163.533 48.0581 163.494 47.7017C163.456 47.3428 163.536 46.9743 163.732 46.596C163.905 46.2632 164.11 46.0274 164.349 45.8887C164.588 45.7474 164.849 45.6745 165.129 45.6698C165.41 45.6651 165.698 45.7025 165.993 45.7819C166.292 45.8601 166.585 45.9516 166.873 46.0563C167.25 46.1941 167.554 46.3086 167.785 46.3997C168.02 46.4896 168.203 46.5318 168.334 46.5261C168.467 46.5218 168.571 46.4478 168.646 46.304L168.662 46.2738C168.855 45.9006 168.904 45.5576 168.807 45.2448C168.712 44.9334 168.46 44.671 168.049 44.4577C167.622 44.2365 167.24 44.1565 166.901 44.2174C166.562 44.2784 166.289 44.3893 166.08 44.5501L165.39 43.8078C165.725 43.5333 166.069 43.3631 166.423 43.2973C166.781 43.2303 167.131 43.2355 167.471 43.3131C167.816 43.3894 168.134 43.5035 168.427 43.6553C168.613 43.7521 168.816 43.886 169.034 44.057C169.257 44.2268 169.446 44.4387 169.602 44.6926C169.761 44.9479 169.845 45.2522 169.853 45.6056C169.862 45.9589 169.747 46.3663 169.507 46.8278L167.521 50.6555L166.628 50.1923L167.036 49.4056L166.991 49.382C166.865 49.4767 166.694 49.5593 166.478 49.6297C166.263 49.7002 166.011 49.725 165.724 49.7041C165.438 49.6833 165.125 49.5852 164.787 49.4099ZM165.34 48.6787C165.693 48.8619 166.026 48.9469 166.34 48.9339C166.657 48.9221 166.934 48.8386 167.171 48.6833C167.411 48.5294 167.594 48.3314 167.719 48.0893L168.143 47.2723C168.082 47.2981 167.977 47.2965 167.829 47.2676C167.685 47.2375 167.522 47.1931 167.341 47.1345C167.164 47.0746 166.992 47.0142 166.826 46.9533C166.663 46.8911 166.53 46.8414 166.428 46.8043C166.18 46.7142 165.937 46.6508 165.7 46.6142C165.467 46.5764 165.254 46.5923 165.061 46.6618C164.872 46.7301 164.719 46.8777 164.601 47.1047C164.44 47.4148 164.433 47.7089 164.58 47.9868C164.731 48.2635 164.984 48.4941 165.34 48.6787Z" fill="white"/>
<path d="M175.859 48.0201L175.408 48.7435L172.413 46.8783L172.864 46.1548L175.859 48.0201ZM170.301 52.2696L174.239 45.9466C174.437 45.6283 174.677 45.4096 174.958 45.2905C175.24 45.1714 175.533 45.1332 175.838 45.1757C176.143 45.2183 176.428 45.3222 176.693 45.4874C176.903 45.618 177.064 45.7416 177.175 45.8579C177.287 45.9743 177.366 46.0672 177.413 46.1367L176.708 46.7214C176.673 46.6799 176.624 46.6243 176.561 46.5545C176.5 46.4863 176.407 46.4138 176.284 46.3372C176.002 46.1615 175.754 46.1058 175.54 46.17C175.329 46.2356 175.137 46.4059 174.966 46.6808L171.154 52.8012L170.301 52.2696Z" fill="white"/>
<path d="M180.896 51.4807L180.397 52.172L177.646 50.1882L178.144 49.4969L180.896 51.4807ZM179.864 48.8031L180.679 49.3912L177.031 54.4517C176.864 54.6821 176.773 54.879 176.757 55.0424C176.745 55.2052 176.777 55.3444 176.855 55.46C176.937 55.5749 177.038 55.6756 177.158 55.762C177.247 55.8268 177.324 55.8754 177.389 55.9077C177.455 55.9377 177.507 55.9617 177.547 55.9797L177.184 56.8321C177.114 56.813 177.022 56.7781 176.908 56.7274C176.792 56.679 176.658 56.5999 176.506 56.4903C176.276 56.3241 176.086 56.1118 175.936 55.8532C175.789 55.5962 175.715 55.314 175.716 55.0066C175.72 54.7008 175.833 54.3935 176.055 54.0847L179.864 48.8031Z" fill="white"/>
<circle cx="187.175" cy="64.1782" r="5" fill="white"/>
<circle cx="61.1748" cy="64.1782" r="5" fill="white"/>
</svg>
