<svg width="138" height="50" viewBox="0 0 138 50" fill="none" xmlns="http://www.w3.org/2000/svg">
<rect width="50" height="50" rx="5" fill="#333333"/>
<path d="M23.7749 23.4L17.5249 20.7C17.1249 20.5167 16.8792 20.2207 16.7879 19.812C16.6965 19.4033 16.8089 19.041 17.1249 18.725L17.5249 18.325C17.6582 18.1917 17.8209 18.0917 18.0129 18.025C18.2049 17.9583 18.4005 17.9417 18.5999 17.975L27.5999 19.575L30.6999 16.45C31.0832 16.0667 31.5542 15.875 32.1129 15.875C32.6715 15.875 33.1422 16.0667 33.5249 16.45C33.9075 16.8333 34.0992 17.3043 34.0999 17.863C34.1005 18.4217 33.9089 18.8923 33.5249 19.275L30.4249 22.4L31.9999 31.375C32.0332 31.575 32.0205 31.775 31.9619 31.975C31.9032 32.175 31.8075 32.3417 31.6749 32.475L31.2749 32.85C30.9582 33.1667 30.5915 33.2833 30.1749 33.2C29.7582 33.1167 29.4582 32.875 29.2749 32.475L26.5999 26.225L24.0499 28.75L24.5999 31.85C24.6332 32.0167 24.6249 32.1793 24.5749 32.338C24.5249 32.4967 24.4415 32.634 24.3249 32.75L23.8999 33.175C23.6665 33.4083 23.3792 33.5 23.0379 33.45C22.6965 33.4 22.4422 33.225 22.2749 32.925L20.4499 29.55L17.0749 27.725C16.7749 27.5583 16.5999 27.3043 16.5499 26.963C16.4999 26.6217 16.5915 26.334 16.8249 26.1L17.2499 25.675C17.3665 25.5583 17.5042 25.475 17.6629 25.425C17.8215 25.375 17.9839 25.3667 18.1499 25.4L21.2249 25.925L23.7749 23.4Z" fill="white"/>
<path d="M60.416 33.24C60.112 33.24 59.872 33.16 59.696 33C59.536 32.84 59.456 32.616 59.456 32.328L59.48 32.112L61.952 18.024H56.744C56.44 18.024 56.2 17.952 56.024 17.808C55.848 17.664 55.76 17.48 55.76 17.256C55.76 16.92 55.88 16.664 56.12 16.488C56.36 16.296 56.672 16.2 57.056 16.2H69.752C70.024 16.2 70.256 16.256 70.448 16.368C70.64 16.48 70.736 16.672 70.736 16.944C70.736 17.264 70.616 17.528 70.376 17.736C70.152 17.928 69.84 18.024 69.44 18.024H64.232L61.76 32.112C61.696 32.48 61.536 32.76 61.28 32.952C61.04 33.144 60.752 33.24 60.416 33.24ZM68.6705 33.24C68.0625 33.24 67.7585 32.968 67.7585 32.424C67.7585 32.296 67.7665 32.192 67.7825 32.112L69.5345 22.128C69.5985 21.776 69.7345 21.504 69.9425 21.312C70.1665 21.104 70.4545 21 70.8065 21C71.0945 21 71.3185 21.08 71.4785 21.24C71.6545 21.384 71.7425 21.592 71.7425 21.864C71.7425 21.976 71.7345 22.064 71.7185 22.128L71.4785 23.352C72.7905 21.944 74.3505 21.24 76.1585 21.24H76.7105C77.0625 21.24 77.3265 21.312 77.5025 21.456C77.6945 21.584 77.7905 21.76 77.7905 21.984C77.7905 22.32 77.6625 22.592 77.4065 22.8C77.1505 22.992 76.8225 23.088 76.4225 23.088H75.7025C74.4385 23.088 73.3665 23.464 72.4865 24.216C71.6225 24.952 71.0785 25.96 70.8545 27.24L69.9905 32.112C69.9265 32.448 69.7745 32.72 69.5345 32.928C69.3105 33.136 69.0225 33.24 68.6705 33.24ZM81.6176 33.24C80.3056 33.24 79.2416 32.936 78.4256 32.328C77.6256 31.72 77.2256 30.928 77.2256 29.952C77.2256 29.056 77.4736 28.264 77.9696 27.576C78.4816 26.888 79.1856 26.36 80.0816 25.992C80.9936 25.608 82.0416 25.416 83.2256 25.416C84.0576 25.416 84.8096 25.528 85.4816 25.752C86.1696 25.976 86.6896 26.28 87.0416 26.664L87.2576 25.464C87.3056 25.224 87.3296 24.992 87.3296 24.768C87.3296 24.096 87.0896 23.6 86.6096 23.28C86.1456 22.96 85.4256 22.8 84.4496 22.8C83.0256 22.8 81.7296 23.128 80.5616 23.784C80.2096 23.976 79.9456 24.072 79.7696 24.072C79.5456 24.072 79.3536 24 79.1936 23.856C79.0496 23.712 78.9776 23.536 78.9776 23.328C78.9776 22.976 79.1616 22.672 79.5296 22.416C80.1856 21.968 80.9696 21.624 81.8816 21.384C82.8096 21.128 83.7616 21 84.7376 21C86.2416 21 87.4176 21.328 88.2656 21.984C89.1296 22.624 89.5616 23.512 89.5616 24.648C89.5616 24.92 89.5376 25.2 89.4896 25.488L88.3376 32.16C88.2736 32.528 88.1296 32.8 87.9056 32.976C87.6816 33.152 87.3936 33.24 87.0416 33.24C86.7536 33.24 86.5216 33.168 86.3456 33.024C86.1856 32.896 86.1056 32.704 86.1056 32.448C86.1056 32.336 86.1136 32.256 86.1296 32.208L86.2496 31.536C85.0976 32.672 83.5536 33.24 81.6176 33.24ZM82.3136 31.536C83.5776 31.536 84.6096 31.296 85.4096 30.816C86.2256 30.32 86.6336 29.696 86.6336 28.944C86.6336 28.352 86.3216 27.896 85.6976 27.576C85.0896 27.256 84.2336 27.096 83.1296 27.096C81.9936 27.096 81.0976 27.336 80.4416 27.816C79.8016 28.28 79.4816 28.928 79.4816 29.76C79.4816 30.336 79.7216 30.776 80.2016 31.08C80.6816 31.384 81.3856 31.536 82.3136 31.536ZM96.5101 33.24C95.7421 33.24 95.0941 32.984 94.5661 32.472C94.0381 31.944 93.6861 31.208 93.5101 30.264L92.0941 22.368C92.0301 22.096 92.0861 21.84 92.2621 21.6C92.4541 21.344 92.6941 21.176 92.9821 21.096C93.1261 21.048 93.2701 21.024 93.4141 21.024C93.6381 21.024 93.8221 21.08 93.9661 21.192C94.1261 21.304 94.2221 21.464 94.2541 21.672L95.7181 29.808C95.8301 30.416 95.9581 30.84 96.1021 31.08C96.2461 31.304 96.4541 31.416 96.7261 31.416C96.9981 31.416 97.2541 31.304 97.4941 31.08C97.7341 30.84 98.0061 30.432 98.3101 29.856L102.678 21.672C102.79 21.464 102.942 21.304 103.134 21.192C103.326 21.08 103.534 21.024 103.758 21.024C103.918 21.024 104.07 21.048 104.214 21.096C104.422 21.16 104.582 21.264 104.694 21.408C104.822 21.552 104.886 21.72 104.886 21.912C104.886 22.056 104.846 22.208 104.766 22.368L100.518 30.312C99.9741 31.32 99.3901 32.064 98.7661 32.544C98.1421 33.008 97.3901 33.24 96.5101 33.24ZM110.745 33.216C108.937 33.216 107.513 32.76 106.473 31.848C105.449 30.936 104.937 29.672 104.937 28.056C104.937 26.696 105.249 25.48 105.873 24.408C106.513 23.336 107.393 22.504 108.513 21.912C109.649 21.304 110.937 21 112.377 21C113.497 21 114.505 21.176 115.401 21.528C116.297 21.88 116.993 22.376 117.489 23.016C118.001 23.64 118.257 24.344 118.257 25.128C118.257 25.96 118.001 26.632 117.489 27.144C116.993 27.64 116.321 27.888 115.473 27.888H107.145C107.113 28.208 107.097 28.424 107.097 28.536C107.097 29.464 107.433 30.176 108.105 30.672C108.777 31.152 109.753 31.392 111.033 31.392C111.785 31.392 112.473 31.312 113.097 31.152C113.721 30.976 114.361 30.688 115.017 30.288C115.481 30.016 115.817 29.88 116.025 29.88C116.185 29.88 116.337 29.96 116.481 30.12C116.657 30.328 116.745 30.512 116.745 30.672C116.745 30.912 116.585 31.176 116.265 31.464C115.705 31.976 114.921 32.4 113.913 32.736C112.905 33.056 111.849 33.216 110.745 33.216ZM115.089 26.208C115.393 26.208 115.633 26.12 115.809 25.944C115.985 25.768 116.073 25.536 116.073 25.248C116.073 24.496 115.737 23.904 115.065 23.472C114.409 23.04 113.513 22.824 112.377 22.824C111.049 22.824 109.953 23.128 109.089 23.736C108.225 24.328 107.689 25.152 107.481 26.208H115.089ZM121.135 33.24C120.511 33.24 120.199 32.952 120.199 32.376C120.199 32.264 120.207 32.176 120.223 32.112L123.079 15.912C123.159 15.544 123.311 15.264 123.535 15.072C123.759 14.88 124.047 14.784 124.399 14.784C124.687 14.784 124.911 14.856 125.071 15C125.247 15.144 125.335 15.352 125.335 15.624C125.335 15.752 125.327 15.848 125.311 15.912L122.455 32.112C122.391 32.464 122.239 32.744 121.999 32.952C121.775 33.144 121.487 33.24 121.135 33.24ZM131.638 33.216C130.438 33.216 129.342 33.008 128.35 32.592C127.374 32.176 126.638 31.6 126.142 30.864C126.03 30.688 125.974 30.528 125.974 30.384C125.974 30.208 126.03 30.04 126.142 29.88C126.254 29.72 126.414 29.584 126.622 29.472C126.878 29.36 127.062 29.304 127.174 29.304C127.43 29.304 127.678 29.456 127.918 29.76C128.382 30.32 128.926 30.728 129.55 30.984C130.174 31.24 130.926 31.368 131.806 31.368C132.622 31.368 133.27 31.224 133.75 30.936C134.23 30.648 134.47 30.264 134.47 29.784C134.47 29.528 134.39 29.312 134.23 29.136C134.07 28.96 133.782 28.776 133.366 28.584C132.95 28.376 132.318 28.128 131.47 27.84C130.094 27.36 129.11 26.872 128.518 26.376C127.942 25.864 127.654 25.264 127.654 24.576C127.654 23.504 128.11 22.64 129.022 21.984C129.95 21.328 131.174 21 132.694 21C133.718 21 134.67 21.176 135.55 21.528C136.446 21.88 137.054 22.344 137.374 22.92C137.47 23.064 137.518 23.216 137.518 23.376C137.518 23.712 137.326 23.992 136.942 24.216C136.734 24.328 136.534 24.384 136.342 24.384C136.022 24.384 135.734 24.24 135.478 23.952C134.838 23.216 133.838 22.848 132.478 22.848C131.694 22.848 131.078 22.984 130.63 23.256C130.182 23.512 129.958 23.88 129.958 24.36C129.958 24.616 130.03 24.824 130.174 24.984C130.318 25.144 130.59 25.312 130.99 25.488C131.39 25.664 132.03 25.904 132.91 26.208C134.286 26.672 135.262 27.176 135.838 27.72C136.43 28.248 136.726 28.912 136.726 29.712C136.726 30.816 136.278 31.68 135.382 32.304C134.486 32.912 133.238 33.216 131.638 33.216Z" fill="white"/>
</svg>
